# xmcd CD database file
#
# Track frame offsets:
#	150
#	24757
#	42313
#	62269
#	75775
#	93482
#	113888
#	140744
#
# Disc length: 2162 seconds
#
# Revision: 0
# Processed by: cddbd v1.5.2PL0 Copyright (c) Steve Scherf et al.
# Submitted via: CDex 1.51
#
DISCID=56087008
DTITLE=Loose Marbles - The Recession Session
DYEAR=1900
DGENRE=Jazz
TTITLE0=Till We Meet Again
TTITLE1=South
TTITLE2=Dyin' Blues
TTITLE3=You Gotta Give Me Some
TTITLE4=Boy in the Boat
TTITLE5=Memory Lane
TTITLE6=I Ain't Got Nobody
TTITLE7=Farewell Blues
EXTD=
EXTT0=
EXTT1=
EXTT2=
EXTT3=
EXTT4=
EXTT5=
EXTT6=
EXTT7=
PLAYORDER=
